#!OML:ASF H:\Male1\Project 1\Capture day 1\Session 1\Male1.ASF
:FULLY-SPECIFIED
:DEGREES
240
root -7.16125 15.1882 5.5489 181.887 1.31768 -179.549
lowerback 8.47944 -0.32589 -5.4034
upperback 5.44726 -0.254184 -0.823196
thorax 0.947523 -0.0181708 2.20289
lowerneck -8.4125 -4.81296 1.74293
upperneck 19.9826 -5.89774 -1.31213
head 7.41668 -2.50698 -1.19296
rclavicle 7.95139e-016 1.59028e-015
rhumerus -36.3305 12.8649 -92.4699
rradius 41.661
rwrist -24.8082
rhand -17.899 0.145423
rfingers 7.12502
rthumb 8.36782 -29.6688
lclavicle 7.95139e-016 1.59028e-015
lhumerus -35.9749 1.48326 79.4151
lradius 39.4446
lwrist 25.0725
lhand -32.3305 29.0639
lfingers 7.12502
lthumb -5.56787 58.9707
rfemur -25.0787 1.83742 21.3173
rtibia 39.9012
rfoot -28.5724 -28.4397
rtoes -6.40584
lfemur 2.22896 -14.1047 -21.3482
ltibia 18.6755
lfoot -31.2978 31.0658
ltoes 2.81438
241
root -7.10968 15.1799 5.47969 181.938 3.68633 -179.546
lowerback 8.09449 -0.246815 -5.26687
upperback 5.32279 -0.162974 -0.774569
thorax 1.01866 0.0120874 2.16918
lowerneck -8.64383 -4.79232 1.66146
upperneck 20.1994 -5.89065 -1.20385
head 7.53592 -2.49788 -1.15467
rclavicle 6.75868e-015 0
rhumerus -36.1839 12.7634 -92.4288
rradius 41.2263
rwrist -24.3186
rhand -17.5877 0.0440291
rfingers 7.12502
rthumb 8.6682 -29.758
lclavicle 6.75868e-015 0
lhumerus -36.3795 2.17902 79.3453
lradius 38.9737
lwrist 24.9556
lhand -32.5003 29.3535
lfingers 7.12502
lthumb -5.73177 59.2559
rfemur -25.0017 1.57764 21.2519
rtibia 39.3049
rfoot -30.4368 -29.2503
rtoes -2.96931
lfemur 3.53846 -13.6334 -21.603
ltibia 17.5963
lfoot -33.086 31.7737
ltoes 5.63499
242
root -7.04876 15.169 5.40523 182.018 5.99909 -179.475
lowerback 7.69156 -0.199079 -5.07574
upperback 5.20078 -0.108385 -0.713775
thorax 1.10523 0.025479 2.12055
lowerneck -8.83958 -4.73306 1.53473
upperneck 20.36 -5.83657 -1.03581
head 7.63494 -2.46613 -1.08343
rclavicle -1.5704e-014 -3.26007e-014
rhumerus -36.0011 12.5565 -92.3624
rradius 40.7636
rwrist -23.6856
rhand -17.1846 0.0058014
rfingers 7.12502
rthumb 9.05724 -29.7797
lclavicle -1.5704e-014 -3.26007e-014
lhumerus -36.7783 2.82447 79.2255
lradius 38.4524
lwrist 24.8379
lhand -32.5257 29.5231
lfingers 7.12502
lthumb -5.75628 59.4249
rfemur -24.9114 1.34865 21.3841
rtibia 38.6696
rfoot -31.8399 -29.7015
rtoes -0.711119
lfemur 4.70977 -12.9631 -21.7061
ltibia 16.7315
lfoot -34.8002 32.2282
ltoes 7.80281
243
root -6.97675 15.1564 5.32618 182.119 8.19961 -179.259
lowerback 7.29584 -0.206904 -4.78303
upperback 5.08503 -0.122432 -0.607901
thorax 1.19904 0.0067722 2.06615
lowerneck -8.94213 -4.64253 1.41166
upperneck 20.4164 -5.74338 -0.857362
head 7.68354 -2.41794 -1.00146
rclavicle 7.35503e-015 2.14687e-014
rhumerus -35.8326 12.3285 -92.2928
rradius 40.3319
rwrist -23.0115
rhand -16.7155 0.00247742
rfingers 7.12502
rthumb 9.50983 -29.7629
lclavicle 7.35503e-015 2.14687e-014
lhumerus -37.2036 3.41462 79.071
lradius 37.916
lwrist 24.7765
lhand -32.452 29.6006
lfingers 7.12502
lthumb -5.68511 59.5043
rfemur -24.7276 1.07394 21.8109
rtibia 37.9864
rfoot -32.502 -29.7608
rtoes -0.0444139
lfemur 5.66575 -12.1112 -21.5523
ltibia 16.2658
lfoot -36.3386 32.4073
ltoes 9.20125
244
root -6.89081 15.1419 5.24383 182.215 10.3008 -178.817
lowerback 6.97555 -0.261145 -4.36029
upperback 4.97424 -0.195454 -0.42932
thorax 1.25969 -0.0375374 2.0171
lowerneck -8.92092 -4.52776 1.3325
upperneck 20.3602 -5.61654 -0.714009
head 7.67017 -2.35707 -0.929936
rclavicle 4.96962e-015 1.27222e-014
rhumerus -35.7358 12.1441 -92.26
rradius 39.9706
rwrist -22.4032
rhand -16.2588 0.0208699
rfingers 7.12502
rthumb 9.9505 -29.7239
lclavicle 4.96962e-015 1.27222e-014
lhumerus -37.694 3.95553 78.8726
lradius 37.389
lwrist 24.7487
lhand -32.3094 29.6061
lfingers 7.12502
lthumb -5.54742 59.5135
rfemur -24.3505 0.803417 22.622
rtibia 37.253
rfoot -32.3078 -29.5379
rtoes -1.19624
lfemur 6.39933 -11.0415 -21.0325
ltibia 16.339
lfoot -37.6017 32.2753
ltoes 9.77201
245
root -6.79089 15.1252 5.15964 182.303 12.3068 -178.177
lowerback 6.72363 -0.350188 -3.83563
upperback 4.8943 -0.308387 -0.19495
thorax 1.31649 -0.0976371 1.97001
lowerneck -8.85054 -4.40568 1.29834
upperneck 20.247 -5.4832 -0.594091
head 7.62677 -2.29388 -0.870871
rclavicle 0 -1.66979e-014
rhumerus -35.6953 12.0486 -92.2892
rradius 39.6939
rwrist -21.9307
rhand -15.9405 0.0163631
rfingers 7.12502
rthumb 10.2575 -29.7135
lclavicle 0 -1.66979e-014
lhumerus -38.1957 4.46329 78.6199
lradius 36.87
lwrist 24.7123
lhand -32.144 29.5553
lfingers 7.12502
lthumb -5.38779 59.4668
rfemur -23.7442 0.629953 23.7525
rtibia 36.4736
rfoot -31.3947 -29.1107
rtoes -3.67252
lfemur 6.90152 -9.77998 -20.166
ltibia 17.0161
lfoot -38.4816 31.8576
ltoes 9.49904
246
root -6.67918 15.1072 5.07489 182.387 14.2409 -177.488
lowerback 6.52252 -0.453023 -3.31753
upperback 4.84452 -0.436283 0.0366557
thorax 1.37741 -0.162374 1.92377
lowerneck -8.79728 -4.28766 1.31418
upperneck 20.1368 -5.35988 -0.497329
head 7.58492 -2.23396 -0.82908
rclavicle -6.24184e-014 2.94201e-014
rhumerus -35.6991 12.0428 -92.3954
rradius 39.479
rwrist -21.6236
rhand -15.8574 -0.0157631
rfingers 7.12502
rthumb 10.3377 -29.7417
lclavicle -6.24184e-014 2.94201e-014
lhumerus -38.6701 4.96894 78.2887
lradius 36.3536
lwrist 24.6192
lhand -31.9728 29.4445
lfingers 7.12502
lthumb -5.2225 59.3601
rfemur -22.962 0.65337 24.9895
rtibia 35.69
rfoot -30.0056 -28.547
rtoes -6.64647
lfemur 7.18329 -8.31331 -19.1003
ltibia 18.237
lfoot -38.8154 31.2359
ltoes 8.33542
247
root -6.55682 15.089 4.98974 182.467 16.1501 -176.812
lowerback 6.34837 -0.546634 -2.84444
upperback 4.81956 -0.55032 0.23213
thorax 1.44839 -0.218331 1.86416
lowerneck -8.7863 -4.16822 1.36971
upperneck 20.0665 -5.24124 -0.397327
head 7.56266 -2.17151 -0.794784
rclavicle -2.32578e-014 7.15625e-015
rhumerus -35.719 12.0918 -92.5872
rradius 39.2495
rwrist -21.4772
rhand -16.0291 0.017173
rfingers 7.12502
rthumb 10.1721 -29.7169
lclavicle -2.32578e-014 7.15625e-015
lhumerus -39.1016 5.52506 77.8371
lradius 35.8257
lwrist 24.4099
lhand -31.7817 29.2172
lfingers 7.12502
lthumb -5.03793 59.1373
rfemur -22.0717 0.963745 26.2315
rtibia 34.9572
rfoot -28.4301 -27.9173
rtoes -9.32218
lfemur 7.29778 -6.62259 -17.8952
ltibia 19.8815
lfoot -38.4904 30.5108
ltoes 6.38224
248
root -6.42547 15.0722 4.90382 182.519 18.068 -176.327
lowerback 6.1692 -0.60933 -2.54251
upperback 4.80235 -0.628771 0.327017
thorax 1.52967 -0.257894 1.79463
lowerneck -8.81399 -4.04518 1.44862
upperneck 20.0569 -5.12458 -0.269376
head 7.56746 -2.10295 -0.757
rclavicle 1.8487e-014 1.03368e-014
rhumerus -35.7161 12.1037 -92.8564
rradius 38.9055
rwrist -21.416
rhand -16.4187 0.128514
rfingers 7.12502
rthumb 9.79619 -29.6236
lclavicle 1.8487e-014 1.03368e-014
lhumerus -39.486 6.15133 77.2302
lradius 35.2623
lwrist 24.0312
lhand -31.5552 28.8146
lfingers 7.12502
lthumb -4.81923 58.7398
rfemur -21.1652 1.53674 27.2832
rtibia 34.3311
rfoot -26.937 -27.3074
rtoes -11.3311
lfemur 7.2545 -4.72992 -16.742
ltibia 21.8661
lfoot -37.4666 29.7596
ltoes 4.00708
